<svg width="380.259" height="70.4" viewBox="0 0 380.259 70.4" xmlns="http://www.w3.org/2000/svg"><g id="svgGroup" stroke-linecap="round" fill-rule="evenodd" font-size="9pt" stroke="#ffffff" stroke-width="0.25mm" fill="#ffffff" style="stroke:#ffffff;stroke-width:0.25mm;fill:#ffffff"><path d="M 270.308 23.687 L 270.308 7.295 A 4.081 4.081 0 0 1 270.351 6.683 Q 270.399 6.363 270.503 6.103 A 1.811 1.811 0 0 1 270.747 5.669 Q 272.593 3.252 276.152 0.439 A 3.258 3.258 0 0 1 276.515 0.212 Q 276.703 0.113 276.876 0.06 A 1.285 1.285 0 0 1 277.251 0 A 1.545 1.545 0 0 1 277.999 0.198 A 2.177 2.177 0 0 1 278.35 0.439 Q 279.974 1.686 281.159 2.802 A 24.223 24.223 0 0 1 281.536 3.164 A 24.993 24.993 0 0 1 282.859 4.564 A 19.437 19.437 0 0 1 283.755 5.669 Q 284.098 6.115 284.173 6.855 A 4.351 4.351 0 0 1 284.194 7.295 L 284.194 67.061 A 1.985 1.985 0 0 1 283.623 68.489 A 1.911 1.911 0 0 1 282.255 69.081 A 2.542 2.542 0 0 1 282.173 69.082 L 275.625 69.082 A 4.273 4.273 0 0 1 274.97 69.034 A 3.216 3.216 0 0 1 274.373 68.884 A 2.08 2.08 0 0 1 273.812 68.572 Q 273.568 68.385 273.34 68.115 L 270.615 64.6 L 270.308 64.6 A 6.221 6.221 0 0 1 269.889 65.162 Q 269.299 65.876 268.264 66.819 A 8.741 8.741 0 0 1 266.975 67.778 Q 266.283 68.206 265.429 68.593 A 19.817 19.817 0 0 1 264.002 69.17 Q 261.211 70.181 256.597 70.181 A 19.765 19.765 0 0 1 251.696 69.6 A 15.334 15.334 0 0 1 246.643 67.302 A 17.448 17.448 0 0 1 241.117 60.881 A 21.527 21.527 0 0 1 240.403 59.348 A 26.701 26.701 0 0 1 238.651 52.958 A 35.773 35.773 0 0 1 238.272 47.637 A 40.59 40.59 0 0 1 238.638 42.017 Q 239.337 37.026 241.37 33.464 Q 244.468 28.037 250.115 25.488 A 27.681 27.681 0 0 1 256.691 23.499 Q 259.65 22.974 263.003 22.942 A 45.871 45.871 0 0 1 263.452 22.939 A 43.588 43.588 0 0 1 265.231 22.974 Q 266.713 23.034 267.825 23.203 A 47.141 47.141 0 0 1 268.631 23.332 Q 269.381 23.46 269.88 23.576 A 7.805 7.805 0 0 1 270.308 23.687 Z M 24.346 69.082 L 10.855 69.082 Q 6.74 69.082 4.423 68.138 A 7.459 7.459 0 0 1 3.977 67.939 A 5.907 5.907 0 0 1 0.879 64.404 A 7.614 7.614 0 0 1 0.813 64.204 Q 0.267 62.462 0.088 59.946 A 37.29 37.29 0 0 1 0 57.305 L 0 17.842 Q 0 13.548 0.776 10.996 A 11.183 11.183 0 0 1 0.813 10.876 A 6.25 6.25 0 0 1 1.986 8.697 A 5.878 5.878 0 0 1 3.977 7.185 Q 6.106 6.17 10.019 6.074 A 34.136 34.136 0 0 1 10.855 6.064 L 24.346 6.064 A 53.784 53.784 0 0 1 32.426 6.642 Q 36.867 7.317 40.648 8.782 A 33.627 33.627 0 0 1 40.891 8.877 A 21.902 21.902 0 0 1 51.943 18.391 A 25.061 25.061 0 0 1 54.486 24.591 Q 55.899 29.796 55.899 36.782 A 56.349 56.349 0 0 1 55.431 44.276 Q 54.929 48.008 53.889 51.115 A 26.272 26.272 0 0 1 51.943 55.569 A 23.514 23.514 0 0 1 40.891 65.874 A 35.259 35.259 0 0 1 31.899 68.511 A 47.795 47.795 0 0 1 24.346 69.082 Z M 344.487 63.765 L 348.97 57.129 A 2.641 2.641 0 0 1 349.249 56.784 Q 350.111 55.897 351.167 56.953 Q 352.158 57.91 353.693 58.826 A 22.693 22.693 0 0 0 354.617 59.348 A 9.221 9.221 0 0 0 356.977 60.203 Q 358.02 60.435 359.224 60.493 A 17.038 17.038 0 0 0 360.044 60.513 A 13.989 13.989 0 0 0 362.035 60.379 Q 363.076 60.23 363.94 59.911 A 7.112 7.112 0 0 0 364.812 59.524 A 4.147 4.147 0 0 0 365.796 58.819 A 2.933 2.933 0 0 0 366.68 56.646 A 3.396 3.396 0 0 0 366.534 55.628 A 2.741 2.741 0 0 0 365.845 54.492 Q 365.141 53.788 363.53 53.052 A 20.496 20.496 0 0 0 362.9 52.778 A 69.72 69.72 0 0 0 361.741 52.309 Q 360.439 51.793 358.692 51.149 A 247.485 247.485 0 0 0 357.012 50.537 A 33.656 33.656 0 0 1 353.497 49.049 Q 351.782 48.197 350.439 47.231 A 15.081 15.081 0 0 1 348.574 45.659 Q 345.718 42.803 345.718 37.31 A 14.922 14.922 0 0 1 346.143 33.654 A 10.761 10.761 0 0 1 348.508 29.092 A 15.852 15.852 0 0 1 354.344 24.957 A 19.269 19.269 0 0 1 355.671 24.456 Q 360.044 22.983 364.79 22.983 Q 370.811 22.983 373.25 24.104 A 43.194 43.194 0 0 1 374.234 24.57 Q 375.842 25.359 376.392 25.84 A 3.325 3.325 0 0 1 377.022 26.559 A 2.898 2.898 0 0 1 377.315 27.158 A 14.234 14.234 0 0 1 377.676 28.466 Q 377.834 29.153 377.963 29.957 A 34.662 34.662 0 0 1 378.193 31.685 Q 378.322 32.875 377.815 33.476 A 1.492 1.492 0 0 1 377.358 33.838 A 3.935 3.935 0 0 1 377.013 34.014 Q 376.628 34.19 376.056 34.38 A 18.063 18.063 0 0 1 375.689 34.497 Q 374.546 34.849 373.403 35.112 A 17.447 17.447 0 0 1 372.868 35.228 Q 372.326 35.335 371.951 35.365 A 3.332 3.332 0 0 1 371.69 35.376 A 0.644 0.644 0 0 1 371.502 35.347 Q 371.412 35.319 371.316 35.266 A 1.219 1.219 0 0 1 371.208 35.197 Q 371.025 35.067 370.706 34.781 A 15.296 15.296 0 0 1 370.635 34.717 A 4.11 4.11 0 0 0 370.249 34.382 Q 369.809 34.04 369.123 33.645 A 18.752 18.752 0 0 0 368.679 33.398 Q 367.687 32.863 366.164 32.711 A 13.007 13.007 0 0 0 364.878 32.651 Q 362.968 32.651 361.557 33.149 A 6.576 6.576 0 0 0 360.901 33.42 Q 359.297 34.189 359.297 36.123 Q 359.297 38.232 361.34 39.287 Q 363.384 40.342 368.086 42.012 A 48.714 48.714 0 0 1 371.44 43.303 Q 373.056 43.998 374.435 44.753 A 29.623 29.623 0 0 1 374.524 44.802 A 11.927 11.927 0 0 1 377.34 46.924 A 10.483 10.483 0 0 1 378.765 48.757 Q 379.939 50.675 380.191 53.638 A 20.018 20.018 0 0 1 380.259 55.327 A 15.995 15.995 0 0 1 379.848 59.055 A 11.121 11.121 0 0 1 377.337 63.962 A 16.309 16.309 0 0 1 371.113 68.259 A 19.784 19.784 0 0 1 369.866 68.708 Q 365.317 70.181 360.352 70.181 A 46.279 46.279 0 0 1 357.179 70.079 Q 355.692 69.976 354.414 69.771 A 20.975 20.975 0 0 1 352.551 69.39 A 27.059 27.059 0 0 1 350.483 68.779 Q 349.526 68.451 348.729 68.08 A 12.291 12.291 0 0 1 347.586 67.478 Q 345.718 66.357 344.663 65.435 Q 343.909 64.722 344.433 63.85 A 2.165 2.165 0 0 1 344.487 63.765 Z M 133.945 34.321 L 133.945 66.753 A 4.958 4.958 0 0 1 133.909 67.379 Q 133.804 68.202 133.396 68.577 Q 132.895 69.038 131.753 69.078 A 6.367 6.367 0 0 1 131.528 69.082 L 122.476 69.082 A 5.421 5.421 0 0 1 121.83 69.046 Q 121.157 68.965 120.765 68.7 A 1.337 1.337 0 0 1 120.608 68.577 A 1.401 1.401 0 0 1 120.273 68.083 Q 120.088 67.646 120.063 66.972 A 5.844 5.844 0 0 1 120.059 66.753 L 120.059 34.321 L 114.873 34.321 A 4.958 4.958 0 0 1 114.247 34.285 Q 113.424 34.18 113.049 33.772 Q 112.588 33.271 112.548 32.129 A 6.367 6.367 0 0 1 112.544 31.904 L 112.544 26.499 A 5.421 5.421 0 0 1 112.58 25.853 Q 112.661 25.181 112.926 24.788 A 1.337 1.337 0 0 1 113.049 24.631 A 1.401 1.401 0 0 1 113.543 24.297 Q 113.98 24.111 114.654 24.086 A 5.844 5.844 0 0 1 114.873 24.082 L 120.059 24.082 L 120.059 18.501 A 22.258 22.258 0 0 1 120.467 14.134 A 16.297 16.297 0 0 1 122.19 9.36 A 15.046 15.046 0 0 1 127.947 3.472 A 15.879 15.879 0 0 1 135.459 1.414 A 18.757 18.757 0 0 1 136.011 1.406 A 40.303 40.303 0 0 1 136.982 1.417 Q 138.345 1.45 139.153 1.582 A 7.319 7.319 0 0 1 139.744 1.702 Q 140.386 1.862 140.757 2.109 Q 142.118 2.877 144.311 4.92 A 59.055 59.055 0 0 1 145.503 6.064 A 2.303 2.303 0 0 1 145.768 6.411 Q 145.9 6.625 145.952 6.84 A 1.18 1.18 0 0 1 145.986 7.119 Q 145.986 7.69 145.239 8.438 A 31.522 31.522 0 0 1 143.993 9.659 Q 143.346 10.257 142.734 10.745 Q 141.663 11.598 140.949 12.075 A 11.761 11.761 0 0 1 140.801 12.173 Q 140.347 12.445 139.966 12.561 A 2.039 2.039 0 0 1 139.636 12.634 Q 139.18 12.694 138.419 12.7 A 22.025 22.025 0 0 1 138.252 12.7 Q 133.945 12.7 133.945 19.292 L 133.945 24.082 L 141.9 24.082 A 4.958 4.958 0 0 1 142.525 24.119 Q 143.348 24.224 143.723 24.631 Q 144.184 25.133 144.225 26.274 A 6.367 6.367 0 0 1 144.229 26.499 L 144.229 31.904 A 5.421 5.421 0 0 1 144.193 32.55 Q 144.112 33.223 143.847 33.615 A 1.337 1.337 0 0 1 143.723 33.772 A 1.401 1.401 0 0 1 143.23 34.107 Q 142.793 34.292 142.119 34.317 A 5.844 5.844 0 0 1 141.9 34.321 L 133.945 34.321 Z M 168.311 34.321 L 168.311 66.753 A 4.958 4.958 0 0 1 168.274 67.379 Q 168.169 68.202 167.761 68.577 Q 167.26 69.038 166.119 69.078 A 6.367 6.367 0 0 1 165.894 69.082 L 156.841 69.082 A 5.421 5.421 0 0 1 156.195 69.046 Q 155.522 68.965 155.13 68.7 A 1.337 1.337 0 0 1 154.973 68.577 A 1.401 1.401 0 0 1 154.639 68.083 Q 154.453 67.646 154.428 66.972 A 5.844 5.844 0 0 1 154.424 66.753 L 154.424 34.321 L 149.238 34.321 A 4.958 4.958 0 0 1 148.613 34.285 Q 147.79 34.18 147.415 33.772 Q 146.954 33.271 146.913 32.129 A 6.367 6.367 0 0 1 146.909 31.904 L 146.909 26.499 A 5.421 5.421 0 0 1 146.945 25.853 Q 147.026 25.181 147.291 24.788 A 1.337 1.337 0 0 1 147.415 24.631 A 1.401 1.401 0 0 1 147.908 24.297 Q 148.345 24.111 149.019 24.086 A 5.844 5.844 0 0 1 149.238 24.082 L 154.424 24.082 L 154.424 18.501 A 22.258 22.258 0 0 1 154.832 14.134 A 16.297 16.297 0 0 1 156.555 9.36 A 15.046 15.046 0 0 1 162.312 3.472 A 15.879 15.879 0 0 1 169.824 1.414 A 18.757 18.757 0 0 1 170.376 1.406 A 40.303 40.303 0 0 1 171.347 1.417 Q 172.711 1.45 173.518 1.582 A 7.319 7.319 0 0 1 174.109 1.702 Q 174.751 1.862 175.122 2.109 Q 176.483 2.877 178.676 4.92 A 59.055 59.055 0 0 1 179.868 6.064 A 2.303 2.303 0 0 1 180.133 6.411 Q 180.266 6.625 180.318 6.84 A 1.18 1.18 0 0 1 180.352 7.119 Q 180.352 7.69 179.605 8.438 A 31.522 31.522 0 0 1 178.358 9.659 Q 177.712 10.257 177.1 10.745 Q 176.028 11.598 175.315 12.075 A 11.761 11.761 0 0 1 175.166 12.173 Q 174.712 12.445 174.331 12.561 A 2.039 2.039 0 0 1 174.002 12.634 Q 173.545 12.694 172.784 12.7 A 22.025 22.025 0 0 1 172.617 12.7 Q 168.311 12.7 168.311 19.292 L 168.311 24.082 L 176.265 24.082 A 4.958 4.958 0 0 1 176.89 24.119 Q 177.713 24.224 178.088 24.631 Q 178.55 25.133 178.59 26.274 A 6.367 6.367 0 0 1 178.594 26.499 L 178.594 31.904 A 5.421 5.421 0 0 1 178.558 32.55 Q 178.477 33.223 178.212 33.615 A 1.337 1.337 0 0 1 178.088 33.772 A 1.401 1.401 0 0 1 177.595 34.107 Q 177.158 34.292 176.484 34.317 A 5.844 5.844 0 0 1 176.265 34.321 L 168.311 34.321 Z M 104.634 42.188 L 104.634 67.061 A 2.518 2.518 0 0 1 104.526 67.813 A 2.118 2.118 0 0 1 104.172 68.489 A 1.397 1.397 0 0 1 103.54 68.938 Q 103.299 69.028 102.998 69.062 A 3.462 3.462 0 0 1 102.612 69.082 L 96.021 69.082 A 4.273 4.273 0 0 1 95.366 69.034 A 3.216 3.216 0 0 1 94.768 68.884 A 2.08 2.08 0 0 1 94.207 68.572 Q 93.964 68.385 93.735 68.115 L 91.011 64.6 L 90.703 64.6 Q 88.682 67.544 85.276 68.862 A 19.038 19.038 0 0 1 81.118 69.928 A 25.749 25.749 0 0 1 77.432 70.181 A 18.65 18.65 0 0 1 73.132 69.712 A 12.688 12.688 0 0 1 67.171 66.555 A 11.944 11.944 0 0 1 63.722 60.186 A 17.704 17.704 0 0 1 63.369 56.558 Q 63.369 53.262 64.578 50.427 A 10.864 10.864 0 0 1 66.774 47.161 A 14.838 14.838 0 0 1 68.796 45.417 Q 70.984 43.837 74.447 42.709 A 37.873 37.873 0 0 1 77.234 41.924 Q 81.159 40.97 86.658 40.592 A 104.196 104.196 0 0 1 91.099 40.386 A 12.615 12.615 0 0 0 90.941 38.314 Q 90.758 37.218 90.363 36.359 A 5.104 5.104 0 0 0 89.099 34.629 A 6.28 6.28 0 0 0 86.967 33.427 Q 85.35 32.871 83.101 32.871 A 17.325 17.325 0 0 0 80.681 33.03 Q 79.428 33.207 78.386 33.581 A 8.621 8.621 0 0 0 77.212 34.102 A 93.82 93.82 0 0 0 76.415 34.535 Q 74.82 35.414 74.356 35.771 Q 73.763 36.279 72.927 36.176 A 2.52 2.52 0 0 1 72.861 36.167 A 13.831 13.831 0 0 1 71.478 35.886 A 17.652 17.652 0 0 1 70.335 35.552 A 70.415 70.415 0 0 1 68.945 35.079 A 88.318 88.318 0 0 1 67.456 34.541 Q 67.236 34.453 66.973 34.255 A 0.742 0.742 0 0 1 66.711 33.88 A 1.097 1.097 0 0 1 66.665 33.662 A 2.845 2.845 0 0 1 66.671 33.49 Q 66.676 33.407 66.685 33.313 A 6.418 6.418 0 0 1 66.709 33.113 A 6.505 6.505 0 0 1 66.737 32.928 Q 66.781 32.659 66.87 32.202 A 62.57 62.57 0 0 1 66.929 31.904 Q 67.048 31.307 67.249 30.517 A 50.629 50.629 0 0 1 67.456 29.729 A 27.021 27.021 0 0 1 67.629 29.118 Q 67.885 28.257 68.115 27.729 A 3.331 3.331 0 0 1 68.602 27.048 Q 68.943 26.673 69.434 26.323 Q 70.036 25.827 72.607 24.847 A 78.363 78.363 0 0 1 73.96 24.346 A 18.147 18.147 0 0 1 76.653 23.627 Q 79.978 22.983 84.902 22.983 A 29.305 29.305 0 0 1 92.591 23.902 Q 104.634 27.184 104.634 42.188 Z M 336.841 65.786 L 327.656 70.005 Q 326.776 70.382 326.376 70.4 A 0.867 0.867 0 0 1 326.338 70.4 A 1.165 1.165 0 0 1 325.945 70.328 Q 325.73 70.251 325.503 70.093 Q 324.492 69.39 323.196 66.643 A 10.485 10.485 0 0 1 322.519 64.665 Q 321.9 62.134 321.9 58.184 L 321.9 7.295 A 4.081 4.081 0 0 1 321.942 6.683 Q 321.991 6.363 322.095 6.103 A 1.811 1.811 0 0 1 322.339 5.669 Q 324.185 3.252 327.744 0.439 A 3.258 3.258 0 0 1 328.107 0.212 Q 328.294 0.113 328.468 0.06 A 1.285 1.285 0 0 1 328.843 0 A 1.545 1.545 0 0 1 329.591 0.198 A 2.177 2.177 0 0 1 329.942 0.439 Q 331.565 1.686 332.751 2.802 A 24.223 24.223 0 0 1 333.128 3.164 A 24.993 24.993 0 0 1 334.451 4.564 A 19.437 19.437 0 0 1 335.347 5.669 Q 335.69 6.115 335.765 6.855 A 4.351 4.351 0 0 1 335.786 7.295 L 335.786 55.503 A 29.368 29.368 0 0 0 335.854 57.558 Q 335.968 59.17 336.27 60.447 Q 336.609 61.883 337.036 62.917 A 8.832 8.832 0 0 0 337.412 63.721 A 3.028 3.028 0 0 1 337.563 64.061 Q 337.999 65.246 336.841 65.786 Z M 189.273 64.292 A 20.343 20.343 0 0 0 190.901 65.629 Q 197.071 70.181 206.807 70.181 A 41.154 41.154 0 0 0 207.637 70.172 Q 218.471 69.954 224.736 63.984 Q 229.132 59.797 230.557 53.041 A 34.295 34.295 0 0 0 231.24 45.967 Q 231.24 34.629 224.736 28.806 A 22.12 22.12 0 0 0 214.78 23.768 A 32.579 32.579 0 0 0 207.422 22.983 Q 203.045 22.983 199.355 23.885 A 22.783 22.783 0 0 0 189.514 28.894 Q 182.813 34.805 182.813 46.758 A 39.197 39.197 0 0 0 182.869 48.877 Q 183.069 52.573 183.984 55.631 A 18.683 18.683 0 0 0 189.273 64.292 Z M 21.138 17.622 L 19.204 17.622 A 10.708 10.708 0 0 0 17.869 17.699 Q 16.425 17.881 15.628 18.495 A 2.528 2.528 0 0 0 15.249 18.853 Q 14.304 19.955 14.206 22.468 A 15.431 15.431 0 0 0 14.194 23.071 L 14.194 52.075 Q 14.194 54.618 14.981 55.916 A 3.173 3.173 0 0 0 15.249 56.294 Q 16.304 57.568 19.204 57.568 L 21.226 57.568 A 30.813 30.813 0 0 0 26.941 57.072 Q 30.2 56.456 32.758 55.076 A 15.768 15.768 0 0 0 35.794 52.954 Q 40.768 48.509 40.95 37.783 A 48.561 48.561 0 0 0 40.957 36.958 A 39.688 39.688 0 0 0 40.728 32.539 Q 40.222 28.044 38.606 25.159 Q 36.255 20.962 31.817 19.292 A 24.402 24.402 0 0 0 27.26 18.093 Q 25.067 17.725 22.564 17.645 A 44.346 44.346 0 0 0 21.138 17.622 Z M 309.946 26.411 L 309.946 66.753 A 4.958 4.958 0 0 1 309.91 67.379 Q 309.805 68.202 309.397 68.577 Q 308.896 69.038 307.754 69.078 A 6.367 6.367 0 0 1 307.529 69.082 L 298.477 69.082 A 5.421 5.421 0 0 1 297.831 69.046 Q 297.158 68.965 296.766 68.7 A 1.337 1.337 0 0 1 296.609 68.577 A 1.401 1.401 0 0 1 296.274 68.083 Q 296.089 67.646 296.064 66.972 A 5.844 5.844 0 0 1 296.06 66.753 L 296.06 26.411 A 4.958 4.958 0 0 1 296.096 25.785 Q 296.201 24.962 296.609 24.587 Q 297.11 24.126 298.252 24.086 A 6.367 6.367 0 0 1 298.477 24.082 L 307.529 24.082 A 5.421 5.421 0 0 1 308.176 24.118 Q 308.848 24.199 309.24 24.464 A 1.337 1.337 0 0 1 309.397 24.587 A 1.401 1.401 0 0 1 309.732 25.081 Q 309.917 25.518 309.942 26.192 A 5.844 5.844 0 0 1 309.946 26.411 Z M 207.246 59.546 A 12.321 12.321 0 0 0 210.161 59.222 A 7.889 7.889 0 0 0 214.541 56.536 Q 216.703 53.891 216.966 47.938 A 38.804 38.804 0 0 0 217.002 46.23 A 30.92 30.92 0 0 0 216.847 43.016 Q 216.485 39.566 215.279 37.513 A 6.938 6.938 0 0 0 214.519 36.453 A 7.911 7.911 0 0 0 210.604 34.051 Q 209.064 33.618 207.158 33.618 A 11.638 11.638 0 0 0 203.928 34.043 A 8.663 8.663 0 0 0 199.754 36.672 A 9.008 9.008 0 0 0 198.107 39.498 Q 197.123 42.106 197.056 46.002 A 33.56 33.56 0 0 0 197.051 46.582 Q 197.051 52.455 198.779 55.462 A 7.136 7.136 0 0 0 199.622 56.646 A 8.188 8.188 0 0 0 203.613 59.085 Q 204.929 59.46 206.505 59.53 A 16.672 16.672 0 0 0 207.246 59.546 Z M 270.308 53.657 L 270.308 35.244 A 5.866 5.866 0 0 0 269.898 35.013 Q 269.198 34.651 267.979 34.189 Q 266.353 33.574 263.408 33.574 Q 257.959 33.574 255.234 37.134 A 12.397 12.397 0 0 0 253.159 41.421 Q 252.672 43.186 252.55 45.281 A 24.696 24.696 0 0 0 252.51 46.714 A 27.235 27.235 0 0 0 252.691 49.967 Q 253.117 53.501 254.55 55.603 A 7.675 7.675 0 0 0 254.795 55.942 A 7.593 7.593 0 0 0 257.312 58.112 Q 258.881 58.931 260.859 58.931 Q 263.569 58.931 265.484 58.229 A 7.656 7.656 0 0 0 267.078 57.437 A 9.067 9.067 0 0 0 269.19 55.536 A 7.972 7.972 0 0 0 270.308 53.657 Z M 294.39 8.306 A 1.572 1.572 0 0 0 294.038 9.316 Q 294.038 9.888 294.39 10.305 A 46.73 46.73 0 0 1 294.567 10.517 Q 294.774 10.766 295.041 11.092 A 146.732 146.732 0 0 1 295.313 11.426 A 48.233 48.233 0 0 0 296.321 12.576 A 59.686 59.686 0 0 0 298.081 14.436 A 37.652 37.652 0 0 0 301.377 17.402 A 20.363 20.363 0 0 0 301.4 17.42 Q 301.911 17.802 302.222 17.983 A 2.349 2.349 0 0 0 302.41 18.083 A 1.793 1.793 0 0 0 302.654 18.177 A 1.368 1.368 0 0 0 303.047 18.237 A 1.241 1.241 0 0 0 303.069 18.237 Q 303.367 18.232 303.706 18.083 A 1.695 1.695 0 0 0 303.866 18.002 Q 304.085 17.877 304.382 17.643 A 9.473 9.473 0 0 0 304.673 17.402 Q 306.343 15.996 307.925 14.436 A 62.353 62.353 0 0 0 309.408 12.925 A 45.735 45.735 0 0 0 310.693 11.514 A 180.299 180.299 0 0 1 310.969 11.18 Q 311.257 10.832 311.48 10.566 A 56.262 56.262 0 0 1 311.682 10.327 Q 312.056 9.888 312.056 9.316 Q 312.056 8.745 311.682 8.284 A 25.671 25.671 0 0 0 311.681 8.282 Q 311.401 7.937 311.011 7.48 A 67.548 67.548 0 0 0 310.737 7.163 A 50.403 50.403 0 0 0 307.969 4.219 A 68.58 68.58 0 0 0 304.673 1.187 Q 303.862 0.57 303.362 0.409 A 1.041 1.041 0 0 0 303.047 0.352 Q 302.52 0.352 301.465 1.187 A 89.959 89.959 0 0 0 298.169 4.197 A 54.585 54.585 0 0 0 296.642 5.718 A 41.227 41.227 0 0 0 295.313 7.163 A 360.102 360.102 0 0 0 295.195 7.308 Q 294.841 7.744 294.579 8.069 A 114.858 114.858 0 0 0 294.39 8.306 Z M 91.011 53.657 L 91.011 48.779 A 63.439 63.439 0 0 0 87.816 48.854 Q 84.928 49 82.964 49.433 A 13.885 13.885 0 0 0 81.848 49.724 A 14.064 14.064 0 0 0 80.331 50.284 Q 78.79 50.963 78.029 51.861 A 3.512 3.512 0 0 0 77.783 52.185 Q 76.773 53.701 76.773 55.459 A 6.383 6.383 0 0 0 76.894 56.753 Q 77.211 58.282 78.355 58.997 A 6.267 6.267 0 0 0 80.371 59.796 Q 81.192 59.974 82.139 59.985 A 10.831 10.831 0 0 0 82.266 59.985 A 12.619 12.619 0 0 0 84.599 59.784 Q 85.906 59.538 86.924 58.991 A 6.145 6.145 0 0 0 88.374 57.92 A 12.29 12.29 0 0 0 89.76 56.286 Q 90.479 55.258 90.847 54.199 A 7.131 7.131 0 0 0 91.011 53.657 Z"/></g></svg>