<svg width="750.001" height="76.402" viewBox="0 0 750.001 76.402" xmlns="http://www.w3.org/2000/svg"><g id="svgGroup" stroke-linecap="round" fill-rule="evenodd" font-size="9pt" stroke="#000" stroke-width="0.25mm" fill="#000" style="stroke:#000;stroke-width:0.25mm;fill:#000"><path d="M 554.101 75.2 L 545.101 75.2 L 545.101 1.2 L 554.101 1.2 L 554.101 31.5 Q 556.901 27.4 561.201 24.7 A 17.572 17.572 0 0 1 568.325 22.191 A 22.595 22.595 0 0 1 571.301 22 A 23.225 23.225 0 0 1 576.366 22.518 Q 581.46 23.656 584.451 27.3 Q 588.575 32.326 588.789 40.409 A 33.764 33.764 0 0 1 588.801 41.3 L 588.801 75.2 L 579.801 75.2 L 579.801 42.3 Q 579.801 36.7 577.201 33.3 A 8.42 8.42 0 0 0 571.043 29.953 A 11.979 11.979 0 0 0 569.901 29.9 A 13.23 13.23 0 0 0 563.187 31.767 A 17.586 17.586 0 0 0 561.151 33.15 Q 557.001 36.4 554.101 40.8 L 554.101 75.2 Z M 369.801 71 L 373.601 63.5 A 18.557 18.557 0 0 0 376.744 65.626 Q 378.299 66.47 380.151 67.15 A 24.073 24.073 0 0 0 387.762 68.587 A 27.464 27.464 0 0 0 388.601 68.6 Q 393.993 68.6 396.835 66.885 A 7.738 7.738 0 0 0 397.051 66.75 Q 399.901 64.9 399.901 62 A 7.123 7.123 0 0 0 399.587 59.853 A 6.212 6.212 0 0 0 398.851 58.3 A 6.384 6.384 0 0 0 397.922 57.206 Q 396.908 56.234 395.234 55.281 A 22.3 22.3 0 0 0 395.001 55.15 A 28.462 28.462 0 0 0 393.006 54.157 Q 390.891 53.195 387.902 52.146 A 103.602 103.602 0 0 0 386.901 51.8 A 46.616 46.616 0 0 1 382.503 50.057 Q 380.389 49.083 378.713 47.995 A 19.335 19.335 0 0 1 375.951 45.85 A 11.324 11.324 0 0 1 372.657 39.854 A 16.794 16.794 0 0 1 372.301 36.3 Q 372.301 30.3 377.551 26.15 Q 381.955 22.669 389.209 22.108 A 37.527 37.527 0 0 1 392.101 22 A 40.794 40.794 0 0 1 396.546 22.231 Q 398.854 22.484 400.871 23.016 A 25.234 25.234 0 0 1 401.001 23.05 Q 404.901 24.1 408.001 25.7 L 405.501 33.1 Q 402.801 31.5 399.351 30.5 A 25.024 25.024 0 0 0 394.867 29.653 A 31.837 31.837 0 0 0 391.701 29.5 A 20.632 20.632 0 0 0 388.764 29.695 Q 385.678 30.14 383.801 31.6 A 9.322 9.322 0 0 0 382.443 32.874 Q 381.74 33.692 381.405 34.565 A 4.529 4.529 0 0 0 381.101 36.2 A 4.921 4.921 0 0 0 382.596 39.752 A 7.082 7.082 0 0 0 383.201 40.3 Q 385.266 41.972 391.199 43.934 A 84.459 84.459 0 0 0 391.401 44 A 67.753 67.753 0 0 1 396.463 45.898 Q 402.39 48.417 405.201 51.3 Q 409.101 55.3 409.101 61.3 Q 409.101 68.048 403.85 72.055 A 16.618 16.618 0 0 1 403.451 72.35 Q 398.711 75.748 391.262 76.295 A 40.423 40.423 0 0 1 388.301 76.4 Q 382.401 76.4 377.651 74.9 A 30.883 30.883 0 0 1 373.81 73.415 Q 371.83 72.484 370.248 71.336 A 18.229 18.229 0 0 1 369.801 71 Z M 446.601 71 L 450.401 63.5 A 18.557 18.557 0 0 0 453.544 65.626 Q 455.099 66.47 456.951 67.15 A 24.073 24.073 0 0 0 464.562 68.587 A 27.464 27.464 0 0 0 465.401 68.6 Q 470.793 68.6 473.635 66.885 A 7.738 7.738 0 0 0 473.851 66.75 Q 476.701 64.9 476.701 62 A 7.123 7.123 0 0 0 476.387 59.853 A 6.212 6.212 0 0 0 475.651 58.3 A 6.384 6.384 0 0 0 474.722 57.206 Q 473.708 56.234 472.034 55.281 A 22.3 22.3 0 0 0 471.801 55.15 A 28.462 28.462 0 0 0 469.806 54.157 Q 467.691 53.195 464.702 52.146 A 103.602 103.602 0 0 0 463.701 51.8 A 46.616 46.616 0 0 1 459.303 50.057 Q 457.189 49.083 455.513 47.995 A 19.335 19.335 0 0 1 452.751 45.85 A 11.324 11.324 0 0 1 449.457 39.854 A 16.794 16.794 0 0 1 449.101 36.3 Q 449.101 30.3 454.351 26.15 Q 458.755 22.669 466.009 22.108 A 37.527 37.527 0 0 1 468.901 22 A 40.794 40.794 0 0 1 473.346 22.231 Q 475.654 22.484 477.671 23.016 A 25.234 25.234 0 0 1 477.801 23.05 Q 481.701 24.1 484.801 25.7 L 482.301 33.1 Q 479.601 31.5 476.151 30.5 A 25.024 25.024 0 0 0 471.667 29.653 A 31.837 31.837 0 0 0 468.501 29.5 A 20.632 20.632 0 0 0 465.564 29.695 Q 462.478 30.14 460.601 31.6 A 9.322 9.322 0 0 0 459.243 32.874 Q 458.54 33.692 458.205 34.565 A 4.529 4.529 0 0 0 457.901 36.2 A 4.921 4.921 0 0 0 459.396 39.752 A 7.082 7.082 0 0 0 460.001 40.3 Q 462.066 41.972 467.999 43.934 A 84.459 84.459 0 0 0 468.201 44 A 67.753 67.753 0 0 1 473.263 45.898 Q 479.19 48.417 482.001 51.3 Q 485.901 55.3 485.901 61.3 Q 485.901 68.048 480.65 72.055 A 16.618 16.618 0 0 1 480.251 72.35 Q 475.511 75.748 468.062 76.295 A 40.423 40.423 0 0 1 465.101 76.4 Q 459.201 76.4 454.451 74.9 A 30.883 30.883 0 0 1 450.61 73.415 Q 448.63 72.484 447.048 71.336 A 18.229 18.229 0 0 1 446.601 71 Z M 135.501 75.2 L 126.501 75.2 L 126.501 32.9 L 118.501 32.9 L 118.501 25.1 L 126.501 25.1 L 126.501 19 A 25.495 25.495 0 0 1 127.127 13.182 Q 128.234 8.452 131.303 5.203 A 16.387 16.387 0 0 1 131.401 5.1 A 16.367 16.367 0 0 1 141.805 0.125 A 22.463 22.463 0 0 1 144.201 0 A 29.982 29.982 0 0 1 147.711 0.195 Q 149.456 0.401 150.972 0.825 A 17.884 17.884 0 0 1 151.401 0.95 Q 154.501 1.9 157.301 3.3 L 154.601 10.9 Q 152.501 9.8 150.101 8.9 A 14.172 14.172 0 0 0 146.478 8.079 A 17.356 17.356 0 0 0 144.801 8 A 10.802 10.802 0 0 0 141.771 8.405 A 8.291 8.291 0 0 0 138.051 10.65 A 8.462 8.462 0 0 0 136.104 14.019 Q 135.501 15.92 135.501 18.4 L 135.501 25.1 L 150.901 25.1 L 150.901 32.9 L 135.501 32.9 L 135.501 75.2 Z M 170.301 75.2 L 161.301 75.2 L 161.301 32.9 L 153.301 32.9 L 153.301 25.1 L 161.301 25.1 L 161.301 19 A 25.495 25.495 0 0 1 161.927 13.182 Q 163.034 8.452 166.103 5.203 A 16.387 16.387 0 0 1 166.201 5.1 A 16.367 16.367 0 0 1 176.605 0.125 A 22.463 22.463 0 0 1 179.001 0 A 29.982 29.982 0 0 1 182.511 0.195 Q 184.256 0.401 185.772 0.825 A 17.884 17.884 0 0 1 186.201 0.95 Q 189.301 1.9 192.101 3.3 L 189.401 10.9 Q 187.301 9.8 184.901 8.9 A 14.172 14.172 0 0 0 181.278 8.079 A 17.356 17.356 0 0 0 179.601 8 A 10.802 10.802 0 0 0 176.571 8.405 A 8.291 8.291 0 0 0 172.851 10.65 A 8.462 8.462 0 0 0 170.904 14.019 Q 170.301 15.92 170.301 18.4 L 170.301 25.1 L 185.701 25.1 L 185.701 32.9 L 170.301 32.9 L 170.301 75.2 Z M 37.901 28.4 L 37.901 1.2 L 46.901 1.2 L 46.901 62.6 A 12.15 12.15 0 0 0 47.002 64.236 Q 47.334 66.67 48.751 67.55 Q 50.601 68.7 52.801 68.7 L 50.901 75.7 Q 41.401 75.7 39.301 68.1 Q 37.101 71.2 33.151 73.8 Q 29.201 76.4 23.201 76.4 Q 16.801 76.4 11.501 73.1 A 22.692 22.692 0 0 1 3.963 65.309 A 27.622 27.622 0 0 1 3.101 63.75 A 27.533 27.533 0 0 1 0.512 55.808 A 37.221 37.221 0 0 1 0.001 49.5 A 33.94 33.94 0 0 1 0.89 41.586 A 27.963 27.963 0 0 1 3.151 35.4 A 27.291 27.291 0 0 1 7.769 28.809 A 24.186 24.186 0 0 1 11.551 25.6 Q 16.801 22 23.101 22 A 21.642 21.642 0 0 1 27.373 22.402 A 15.942 15.942 0 0 1 32.051 24.1 A 34.343 34.343 0 0 1 34.631 25.689 Q 35.854 26.524 36.826 27.374 A 16.59 16.59 0 0 1 37.901 28.4 Z M 287.801 28.4 L 287.801 1.2 L 296.801 1.2 L 296.801 62.6 A 12.15 12.15 0 0 0 296.902 64.236 Q 297.234 66.67 298.651 67.55 Q 300.501 68.7 302.701 68.7 L 300.801 75.7 Q 291.301 75.7 289.201 68.1 Q 287.001 71.2 283.051 73.8 Q 279.101 76.4 273.101 76.4 Q 266.701 76.4 261.401 73.1 A 22.692 22.692 0 0 1 253.863 65.309 A 27.622 27.622 0 0 1 253.001 63.75 A 27.533 27.533 0 0 1 250.412 55.808 A 37.221 37.221 0 0 1 249.901 49.5 A 33.94 33.94 0 0 1 250.79 41.586 A 27.963 27.963 0 0 1 253.051 35.4 A 27.291 27.291 0 0 1 257.669 28.809 A 24.186 24.186 0 0 1 261.451 25.6 Q 266.701 22 273.001 22 A 21.642 21.642 0 0 1 277.273 22.402 A 15.942 15.942 0 0 1 281.951 24.1 A 34.343 34.343 0 0 1 284.531 25.689 Q 285.754 26.524 286.726 27.374 A 16.59 16.59 0 0 1 287.801 28.4 Z M 533.801 25.1 L 531.101 32.7 A 30.422 30.422 0 0 0 528.196 31.424 A 23.42 23.42 0 0 0 525.751 30.65 A 20.543 20.543 0 0 0 522.708 30.125 A 26.355 26.355 0 0 0 520.101 30 A 15.889 15.889 0 0 0 512.848 31.643 A 16.132 16.132 0 0 0 508.351 35.05 Q 503.601 40.1 503.601 49 A 25.192 25.192 0 0 0 504.306 55.06 A 21.45 21.45 0 0 0 505.601 58.8 A 18.564 18.564 0 0 0 508.511 63.378 A 16.275 16.275 0 0 0 511.151 65.8 Q 514.701 68.4 519.501 68.4 Q 522.666 68.4 525.068 67.81 A 15.08 15.08 0 0 0 526.001 67.55 Q 528.69 66.703 531.776 65.113 A 49.095 49.095 0 0 0 531.801 65.1 L 534.601 72.7 Q 531.501 74.4 527.651 75.4 Q 523.801 76.4 518.901 76.4 A 26.803 26.803 0 0 1 511.862 75.51 A 22.074 22.074 0 0 1 505.951 72.95 Q 500.401 69.5 497.401 63.35 Q 494.401 57.2 494.401 49.2 Q 494.401 41.7 497.451 35.5 Q 500.501 29.3 506.201 25.65 A 23.067 23.067 0 0 1 515.869 22.229 A 29.608 29.608 0 0 1 519.601 22 Q 524.001 22 527.351 22.8 Q 530.701 23.6 533.801 25.1 Z M 99.401 27.4 L 99.401 23.2 L 107.601 23.2 L 107.601 62.6 A 12.15 12.15 0 0 0 107.702 64.236 Q 108.034 66.67 109.451 67.55 Q 111.301 68.7 113.501 68.7 L 111.601 75.7 A 17.722 17.722 0 0 1 107.336 75.228 Q 101.699 73.828 100.104 68.28 A 13.59 13.59 0 0 1 100.001 67.9 A 21.307 21.307 0 0 1 96.891 71.326 A 28.498 28.498 0 0 1 93.751 73.75 Q 89.801 76.4 83.701 76.4 Q 77.201 76.4 71.901 73.1 A 22.947 22.947 0 0 1 64.487 65.574 A 27.923 27.923 0 0 1 63.451 63.75 A 27.228 27.228 0 0 1 60.82 55.808 A 36.644 36.644 0 0 1 60.301 49.5 A 33.142 33.142 0 0 1 61.297 41.231 A 27.968 27.968 0 0 1 63.451 35.5 Q 66.601 29.3 72.151 25.65 A 22.297 22.297 0 0 1 83.345 22.044 A 27.388 27.388 0 0 1 84.901 22 A 22.584 22.584 0 0 1 89.694 22.491 A 18.703 18.703 0 0 1 93.051 23.55 A 26.002 26.002 0 0 1 97.337 25.844 A 22.103 22.103 0 0 1 99.401 27.4 Z M 339.201 58.9 L 339.201 1.2 L 348.201 1.2 L 348.201 58 A 20.644 20.644 0 0 0 348.389 60.888 Q 348.851 64.152 350.451 66 A 7.363 7.363 0 0 0 355.034 68.476 A 10.724 10.724 0 0 0 356.701 68.6 Q 358.601 68.6 360.451 68.15 A 22.192 22.192 0 0 0 361.914 67.744 Q 362.849 67.447 363.601 67.1 L 365.801 74.4 Q 364.401 75.022 362.488 75.523 A 34.978 34.978 0 0 1 361.351 75.8 A 23.816 23.816 0 0 1 358.195 76.285 A 30.514 30.514 0 0 1 355.501 76.4 A 20.862 20.862 0 0 1 350.61 75.846 A 17.544 17.544 0 0 1 347.201 74.65 A 12.683 12.683 0 0 1 341.876 69.885 A 15.856 15.856 0 0 1 341.351 69 Q 339.616 65.854 339.281 61.212 A 32.105 32.105 0 0 1 339.201 58.9 Z M 723.401 58.9 L 723.401 1.2 L 732.401 1.2 L 732.401 58 A 20.644 20.644 0 0 0 732.589 60.888 Q 733.051 64.152 734.651 66 A 7.363 7.363 0 0 0 739.234 68.476 A 10.724 10.724 0 0 0 740.901 68.6 Q 742.801 68.6 744.651 68.15 A 22.192 22.192 0 0 0 746.114 67.744 Q 747.049 67.447 747.801 67.1 L 750.001 74.4 Q 748.601 75.022 746.688 75.523 A 34.978 34.978 0 0 1 745.551 75.8 A 23.816 23.816 0 0 1 742.395 76.285 A 30.514 30.514 0 0 1 739.701 76.4 A 20.862 20.862 0 0 1 734.81 75.846 A 17.544 17.544 0 0 1 731.401 74.65 A 12.683 12.683 0 0 1 726.076 69.885 A 15.856 15.856 0 0 1 725.551 69 Q 723.816 65.854 723.481 61.212 A 32.105 32.105 0 0 1 723.401 58.9 Z M 202.201 72.95 A 24.559 24.559 0 0 0 206.799 75.04 Q 210.854 76.4 215.501 76.4 Q 222.901 76.4 228.751 73 Q 234.601 69.6 238.001 63.45 A 26.255 26.255 0 0 0 240.653 56.309 A 34.184 34.184 0 0 0 241.401 49 A 34.542 34.542 0 0 0 240.915 43.092 A 25.795 25.795 0 0 0 237.951 34.65 Q 234.501 28.6 228.651 25.3 A 24.848 24.848 0 0 0 224.009 23.273 A 27.738 27.738 0 0 0 215.501 22 A 31.325 31.325 0 0 0 213.92 22.04 A 26.169 26.169 0 0 0 202.301 25.3 Q 196.401 28.6 193.001 34.7 A 26.023 26.023 0 0 0 190.251 42.29 A 35.006 35.006 0 0 0 189.601 49.2 A 34.82 34.82 0 0 0 189.866 53.554 A 27.451 27.451 0 0 0 192.951 63.35 Q 196.301 69.5 202.201 72.95 Z M 612.901 72.95 A 24.559 24.559 0 0 0 617.499 75.04 Q 621.554 76.4 626.201 76.4 Q 633.601 76.4 639.451 73 Q 645.301 69.6 648.701 63.45 A 26.255 26.255 0 0 0 651.353 56.309 A 34.184 34.184 0 0 0 652.101 49 A 34.542 34.542 0 0 0 651.615 43.092 A 25.795 25.795 0 0 0 648.651 34.65 Q 645.201 28.6 639.351 25.3 A 24.848 24.848 0 0 0 634.709 23.273 A 27.738 27.738 0 0 0 626.201 22 A 31.325 31.325 0 0 0 624.62 22.04 A 26.169 26.169 0 0 0 613.001 25.3 Q 607.101 28.6 603.701 34.7 A 26.023 26.023 0 0 0 600.951 42.29 A 35.006 35.006 0 0 0 600.301 49.2 A 34.82 34.82 0 0 0 600.566 53.554 A 27.451 27.451 0 0 0 603.651 63.35 Q 607.001 69.5 612.901 72.95 Z M 672.701 72.95 A 24.559 24.559 0 0 0 677.299 75.04 Q 681.354 76.4 686.001 76.4 Q 693.401 76.4 699.251 73 Q 705.101 69.6 708.501 63.45 A 26.255 26.255 0 0 0 711.153 56.309 A 34.184 34.184 0 0 0 711.901 49 A 34.542 34.542 0 0 0 711.415 43.092 A 25.795 25.795 0 0 0 708.451 34.65 Q 705.001 28.6 699.151 25.3 A 24.848 24.848 0 0 0 694.509 23.273 A 27.738 27.738 0 0 0 686.001 22 A 31.325 31.325 0 0 0 684.42 22.04 A 26.169 26.169 0 0 0 672.801 25.3 Q 666.901 28.6 663.501 34.7 A 26.023 26.023 0 0 0 660.751 42.29 A 35.006 35.006 0 0 0 660.101 49.2 A 34.82 34.82 0 0 0 660.366 53.554 A 27.451 27.451 0 0 0 663.451 63.35 Q 666.801 69.5 672.701 72.95 Z M 323.701 75.2 L 314.701 75.2 L 314.701 23.2 L 323.701 23.2 L 323.701 75.2 Z M 215.501 68.4 Q 223.401 68.4 227.801 63.05 A 18.802 18.802 0 0 0 231.62 54.96 A 27.105 27.105 0 0 0 232.201 49.2 Q 232.201 44 230.001 39.65 A 19.198 19.198 0 0 0 225.829 34.081 A 18.17 18.17 0 0 0 224.051 32.65 Q 220.301 30 215.501 30 A 19.249 19.249 0 0 0 210.274 30.672 A 14.037 14.037 0 0 0 203.201 35.2 A 17.878 17.878 0 0 0 199.527 42.574 Q 198.801 45.506 198.801 49 Q 198.801 54.2 201.001 58.65 A 19.437 19.437 0 0 0 204.53 63.69 A 17.627 17.627 0 0 0 206.951 65.75 Q 210.701 68.4 215.501 68.4 Z M 626.201 68.4 Q 634.101 68.4 638.501 63.05 A 18.802 18.802 0 0 0 642.32 54.96 A 27.105 27.105 0 0 0 642.901 49.2 Q 642.901 44 640.701 39.65 A 19.198 19.198 0 0 0 636.529 34.081 A 18.17 18.17 0 0 0 634.751 32.65 Q 631.001 30 626.201 30 A 19.249 19.249 0 0 0 620.974 30.672 A 14.037 14.037 0 0 0 613.901 35.2 A 17.878 17.878 0 0 0 610.227 42.574 Q 609.501 45.506 609.501 49 Q 609.501 54.2 611.701 58.65 A 19.437 19.437 0 0 0 615.23 63.69 A 17.627 17.627 0 0 0 617.651 65.75 Q 621.401 68.4 626.201 68.4 Z M 686.001 68.4 Q 693.901 68.4 698.301 63.05 A 18.802 18.802 0 0 0 702.12 54.96 A 27.105 27.105 0 0 0 702.701 49.2 Q 702.701 44 700.501 39.65 A 19.198 19.198 0 0 0 696.329 34.081 A 18.17 18.17 0 0 0 694.551 32.65 Q 690.801 30 686.001 30 A 19.249 19.249 0 0 0 680.774 30.672 A 14.037 14.037 0 0 0 673.701 35.2 A 17.878 17.878 0 0 0 670.027 42.574 Q 669.301 45.506 669.301 49 Q 669.301 54.2 671.501 58.65 A 19.437 19.437 0 0 0 675.03 63.69 A 17.627 17.627 0 0 0 677.451 65.75 Q 681.201 68.4 686.001 68.4 Z M 98.601 61.9 L 98.601 34 Q 95.901 32.1 92.651 30.95 Q 89.401 29.8 85.801 29.8 A 15.924 15.924 0 0 0 80.829 30.554 A 14.024 14.024 0 0 0 77.351 32.25 A 16.301 16.301 0 0 0 72.331 37.674 A 19.962 19.962 0 0 0 71.601 39.05 A 20.663 20.663 0 0 0 69.847 44.727 A 27.678 27.678 0 0 0 69.501 49.2 Q 69.501 54.8 71.601 59.15 A 17.602 17.602 0 0 0 74.706 63.696 A 15.697 15.697 0 0 0 77.401 65.95 Q 81.101 68.4 85.701 68.4 Q 89.501 68.4 92.901 66.55 Q 96.301 64.7 98.601 61.9 Z M 37.901 62.1 L 37.901 36.3 A 15.847 15.847 0 0 0 35.79 34.127 Q 34.669 33.164 33.27 32.266 A 28.139 28.139 0 0 0 32.601 31.85 Q 29.201 29.8 25.101 29.8 A 14.946 14.946 0 0 0 20.145 30.6 A 13.385 13.385 0 0 0 16.701 32.4 A 16.69 16.69 0 0 0 11.531 38.55 A 19.924 19.924 0 0 0 11.151 39.35 A 22.19 22.19 0 0 0 9.411 45.715 A 28.113 28.113 0 0 0 9.201 49.2 A 24.757 24.757 0 0 0 9.793 54.719 A 20.327 20.327 0 0 0 11.301 59.05 A 18.205 18.205 0 0 0 14.341 63.564 A 16.122 16.122 0 0 0 17.051 65.9 Q 20.701 68.4 25.201 68.4 Q 28.901 68.4 32.251 66.65 Q 35.601 64.9 37.901 62.1 Z M 287.801 62.1 L 287.801 36.3 A 15.847 15.847 0 0 0 285.69 34.127 Q 284.569 33.164 283.17 32.266 A 28.139 28.139 0 0 0 282.501 31.85 Q 279.101 29.8 275.001 29.8 A 14.946 14.946 0 0 0 270.045 30.6 A 13.385 13.385 0 0 0 266.601 32.4 A 16.69 16.69 0 0 0 261.431 38.55 A 19.924 19.924 0 0 0 261.051 39.35 A 22.19 22.19 0 0 0 259.311 45.715 A 28.113 28.113 0 0 0 259.101 49.2 A 24.757 24.757 0 0 0 259.693 54.719 A 20.327 20.327 0 0 0 261.201 59.05 A 18.205 18.205 0 0 0 264.241 63.564 A 16.122 16.122 0 0 0 266.951 65.9 Q 270.601 68.4 275.101 68.4 Q 278.801 68.4 282.151 66.65 Q 285.501 64.9 287.801 62.1 Z M 314.838 12.488 A 5.973 5.973 0 0 0 319.201 14.3 A 8.175 8.175 0 0 0 320.697 14.169 A 5.647 5.647 0 0 0 323.801 12.55 Q 325.501 10.8 325.501 8 A 7.26 7.26 0 0 0 325.5 7.919 A 6.06 6.06 0 0 0 323.651 3.55 A 7.395 7.395 0 0 0 323.593 3.493 A 6.059 6.059 0 0 0 319.201 1.7 A 8.264 8.264 0 0 0 317.545 1.858 A 5.661 5.661 0 0 0 314.601 3.4 A 5.588 5.588 0 0 0 313.13 6.032 A 7.987 7.987 0 0 0 312.901 8 A 5.992 5.992 0 0 0 313.392 10.419 A 6.643 6.643 0 0 0 314.751 12.4 A 7.466 7.466 0 0 0 314.838 12.488 Z" vector-effect="non-scaling-stroke"/></g></svg>